<?xml version="1.0" encoding="UTF-8"?>
<svg id="Layer_2" data-name="Layer 2" xmlns="http://www.w3.org/2000/svg" viewBox="0 0 285.16 178.99">
  <defs>
    <style>
      .cls-1 {
        fill: #231f20;
        stroke-width: 0px;
      }
    </style>
  </defs>
  <g id="Layer_1-2" data-name="Layer 1">
    <path class="cls-1" d="m282.75,173.98c-22.55-1.18-45.48-2.36-67.1-9.47-18.37-6.04-35.49-16.53-46.7-32.58-2.33-3.34-4.47-6.85-6.52-10.42,2.87-3.22,5.24-6.88,7-10.89,3.8-8.71,4.98-18.28,4.95-27.72-.02-9.1-1-18.27-2.56-27.23-1.48-8.49-3.73-16.85-7.22-24.74-3.3-7.44-7.92-14.5-14.17-19.78-7.71-6.52-17.09-9.63-27.05-10.64C113.57-.47,103.44,0,93.72,1.55c-9.2,1.47-18.34,4.28-26.32,9.18-.96.59-1.9,1.21-2.82,1.86-.03-1.04-.9-2.07-1.86-2.34-1.43-.39-2.57.49-3.08,1.75-7.76,19.12-15.52,38.23-23.28,57.35-7.7,18.96-15.39,37.92-23.09,56.88-4.38,10.79-8.76,21.58-13.14,32.37-.51,1.25.55,2.75,1.75,3.08,1.43.39,2.57-.49,3.08-1.75,7.76-19.12,15.52-38.23,23.28-57.35,7.7-18.96,15.39-37.92,23.09-56.88,3.14-7.75,6.29-15.49,9.43-23.24,12.32-12.83,30.81-16.77,47.98-17.32,9.83-.31,20.39-.06,29.49,4.11,6.97,3.19,12.69,8.42,16.92,14.77,8.98,13.49,12.1,30.31,13.58,46.18,1.45,15.65,1.42,33.95-8.89,46.73-7.12-12.79-13.89-25.89-25.61-35.06-7.3-5.72-16.02-9.28-25.4-9.06-8.86.21-17.37,3.86-22.65,11.14-5.51,7.59-6.11,17.63-4.47,26.58,1.65,8.96,5.65,18.89,13.37,24.25,4.43,3.08,9.92,3.87,15.19,3.93,4.74.05,9.51-.23,14.22-.73,9.23-.99,18.49-3.03,26.69-7.52,2.73-1.49,5.26-3.28,7.57-5.3.74,1.27,1.48,2.53,2.24,3.76,5.13,8.32,11.26,15.88,18.85,22.08,7.37,6.02,15.62,10.82,24.37,14.54,19.68,8.36,41.03,11.09,62.21,12.52,5.43.37,10.87.65,16.31.94,3.22.17,3.21-4.83,0-5Zm-147.72-42.8c-4.22,1.01-8.52,1.64-12.84,2.01-4.67.41-9.43.7-14.11.44-4.63-.25-9.02-1.52-12.41-4.81-3.07-2.97-5.15-6.89-6.66-10.85-2.99-7.82-4.36-16.81-1.81-24.94,2.45-7.83,8.82-13.07,16.75-14.7,7.91-1.63,16.2.33,23.01,4.51,14.04,8.61,21.48,23.78,29.31,37.89-5.91,5.43-13.48,8.6-21.24,10.44Z"/>
  </g>
</svg>